<svg width="203" height="37" viewBox="0 0 203 37" fill="none" xmlns="http://www.w3.org/2000/svg">
<circle cx="5" cy="5" r="5" fill="#4D7EFF"/>
<circle cx="5" cy="18" r="5" fill="#4D7EFF"/>
<circle cx="5" cy="31" r="5" fill="white"/>
<circle cx="31.024" cy="31.0243" r="5" transform="rotate(89.7207 31.024 31.0243)" fill="#4D7EFF"/>
<circle cx="18.0242" cy="31.0876" r="5" transform="rotate(89.7207 18.0242 31.0876)" fill="#4D7EFF"/>
<circle cx="18.0243" cy="18.0243" r="5" transform="rotate(89.7207 18.0243 18.0243)" fill="white"/>
<rect x="16.0272" y="17.6505" width="2.88041" height="18.4233" transform="rotate(45 16.0272 17.6505)" fill="white"/>
<path d="M50.31 28V8.44H54.72V24.28H62.46V28H50.31ZM69.2273 28.36C68.5473 28.36 67.9273 28.24 67.3673 28C66.8273 27.78 66.3673 27.47 65.9873 27.07C65.6073 26.65 65.3073 26.17 65.0873 25.63C64.8873 25.09 64.7873 24.5 64.7873 23.86C64.7873 22.3 65.4473 21.08 66.7673 20.2C68.0873 19.32 70.2173 18.73 73.1573 18.43C73.1173 17.77 72.9173 17.25 72.5573 16.87C72.2173 16.47 71.6373 16.27 70.8173 16.27C70.1773 16.27 69.5373 16.39 68.8973 16.63C68.2773 16.87 67.6073 17.2 66.8873 17.62L65.2973 14.71C66.2573 14.13 67.2573 13.66 68.2973 13.3C69.3573 12.94 70.4773 12.76 71.6573 12.76C73.5773 12.76 75.0373 13.31 76.0373 14.41C77.0573 15.49 77.5673 17.18 77.5673 19.48V28H73.9673L73.6673 26.47H73.5473C72.9073 27.03 72.2373 27.49 71.5373 27.85C70.8373 28.19 70.0673 28.36 69.2273 28.36ZM70.7273 24.94C71.2273 24.94 71.6573 24.83 72.0173 24.61C72.3773 24.39 72.7573 24.08 73.1573 23.68V21.07C71.5973 21.29 70.5173 21.61 69.9173 22.03C69.3173 22.45 69.0173 22.95 69.0173 23.53C69.0173 24.01 69.1673 24.37 69.4673 24.61C69.7873 24.83 70.2073 24.94 70.7273 24.94ZM86.5003 28.36C85.5803 28.36 84.7903 28.22 84.1303 27.94C83.4903 27.66 82.9603 27.27 82.5403 26.77C82.1403 26.27 81.8403 25.67 81.6403 24.97C81.4603 24.25 81.3703 23.46 81.3703 22.6V16.57H79.3303V13.3L81.6103 13.12L82.1203 9.16H85.7803V13.12H89.3503V16.57H85.7803V22.54C85.7803 23.38 85.9503 23.99 86.2903 24.37C86.6503 24.73 87.1203 24.91 87.7003 24.91C87.9403 24.91 88.1803 24.88 88.4203 24.82C88.6803 24.76 88.9103 24.69 89.1103 24.61L89.8003 27.82C89.4003 27.94 88.9303 28.06 88.3903 28.18C87.8503 28.3 87.2203 28.36 86.5003 28.36ZM97.3988 28.36C96.4788 28.36 95.6888 28.22 95.0288 27.94C94.3888 27.66 93.8588 27.27 93.4388 26.77C93.0388 26.27 92.7388 25.67 92.5388 24.97C92.3588 24.25 92.2688 23.46 92.2688 22.6V16.57H90.2288V13.3L92.5088 13.12L93.0188 9.16H96.6788V13.12H100.249V16.57H96.6788V22.54C96.6788 23.38 96.8488 23.99 97.1888 24.37C97.5488 24.73 98.0188 24.91 98.5988 24.91C98.8388 24.91 99.0788 24.88 99.3188 24.82C99.5788 24.76 99.8088 24.69 100.009 24.61L100.699 27.82C100.299 27.94 99.8288 28.06 99.2888 28.18C98.7488 28.3 98.1188 28.36 97.3988 28.36ZM103.153 28V13.12H107.563V28H103.153ZM105.343 10.93C104.603 10.93 103.993 10.72 103.513 10.3C103.033 9.86 102.793 9.3 102.793 8.62C102.793 7.94 103.033 7.39 103.513 6.97C103.993 6.55 104.603 6.34 105.343 6.34C106.103 6.34 106.713 6.55 107.173 6.97C107.653 7.39 107.893 7.94 107.893 8.62C107.893 9.3 107.653 9.86 107.173 10.3C106.713 10.72 106.103 10.93 105.343 10.93ZM117.924 28.36C116.884 28.36 115.914 28.19 115.014 27.85C114.134 27.49 113.364 26.98 112.704 26.32C112.044 25.66 111.524 24.85 111.144 23.89C110.764 22.91 110.574 21.8 110.574 20.56C110.574 19.32 110.784 18.22 111.204 17.26C111.624 16.28 112.184 15.46 112.884 14.8C113.604 14.14 114.434 13.64 115.374 13.3C116.314 12.94 117.294 12.76 118.314 12.76C119.234 12.76 120.044 12.91 120.744 13.21C121.464 13.51 122.104 13.89 122.664 14.35L120.594 17.2C119.894 16.62 119.224 16.33 118.584 16.33C117.504 16.33 116.654 16.71 116.034 17.47C115.414 18.23 115.104 19.26 115.104 20.56C115.104 21.86 115.414 22.89 116.034 23.65C116.674 24.41 117.474 24.79 118.434 24.79C118.914 24.79 119.374 24.69 119.814 24.49C120.274 24.27 120.704 24.01 121.104 23.71L122.844 26.59C122.104 27.23 121.304 27.69 120.444 27.97C119.584 28.23 118.744 28.36 117.924 28.36ZM131.258 28.36C130.198 28.36 129.208 28.19 128.288 27.85C127.368 27.49 126.568 26.98 125.888 26.32C125.208 25.64 124.678 24.82 124.298 23.86C123.918 22.9 123.728 21.8 123.728 20.56C123.728 19.36 123.928 18.28 124.328 17.32C124.728 16.34 125.248 15.52 125.888 14.86C126.548 14.18 127.298 13.66 128.138 13.3C128.978 12.94 129.848 12.76 130.748 12.76C131.808 12.76 132.728 12.94 133.508 13.3C134.308 13.66 134.968 14.16 135.488 14.8C136.028 15.44 136.428 16.2 136.688 17.08C136.948 17.94 137.078 18.88 137.078 19.9C137.078 20.3 137.058 20.68 137.018 21.04C136.978 21.4 136.938 21.67 136.898 21.85H127.988C128.188 22.93 128.628 23.73 129.308 24.25C130.008 24.75 130.858 25 131.858 25C132.918 25 133.988 24.67 135.068 24.01L136.538 26.68C135.778 27.2 134.928 27.61 133.988 27.91C133.068 28.21 132.158 28.36 131.258 28.36ZM127.958 18.94H133.328C133.328 18.1 133.138 17.42 132.758 16.9C132.378 16.38 131.738 16.12 130.838 16.12C130.138 16.12 129.518 16.35 128.978 16.81C128.458 17.27 128.118 17.98 127.958 18.94Z" fill="#4D7EFF"/>
<path d="M146.492 28V8.44H153.182C154.202 8.44 155.142 8.52 156.002 8.68C156.882 8.82 157.642 9.08 158.282 9.46C158.942 9.84 159.452 10.34 159.812 10.96C160.192 11.58 160.382 12.36 160.382 13.3C160.382 13.74 160.322 14.18 160.202 14.62C160.082 15.06 159.912 15.47 159.692 15.85C159.472 16.23 159.202 16.57 158.882 16.87C158.582 17.17 158.232 17.39 157.832 17.53V17.65C158.332 17.77 158.792 17.96 159.212 18.22C159.632 18.46 160.002 18.77 160.322 19.15C160.642 19.53 160.892 19.98 161.072 20.5C161.252 21 161.342 21.58 161.342 22.24C161.342 23.24 161.142 24.1 160.742 24.82C160.362 25.54 159.822 26.14 159.122 26.62C158.442 27.08 157.642 27.43 156.722 27.67C155.802 27.89 154.812 28 153.752 28H146.492ZM150.902 16.27H152.972C154.052 16.27 154.832 16.06 155.312 15.64C155.812 15.22 156.062 14.66 156.062 13.96C156.062 13.2 155.812 12.66 155.312 12.34C154.812 12.02 154.042 11.86 153.002 11.86H150.902V16.27ZM150.902 24.58H153.392C155.812 24.58 157.022 23.7 157.022 21.94C157.022 21.08 156.722 20.47 156.122 20.11C155.522 19.73 154.612 19.54 153.392 19.54H150.902V24.58ZM165.418 33.82C164.958 33.82 164.568 33.79 164.248 33.73C163.928 33.69 163.618 33.62 163.318 33.52L164.098 30.16C164.238 30.2 164.398 30.24 164.578 30.28C164.758 30.32 164.928 30.34 165.088 30.34C165.828 30.34 166.398 30.16 166.798 29.8C167.198 29.44 167.498 28.97 167.698 28.39L167.908 27.61L162.178 13.12H166.618L168.748 19.51C168.968 20.19 169.168 20.88 169.348 21.58C169.528 22.28 169.718 23 169.918 23.74H170.038C170.198 23.04 170.358 22.34 170.518 21.64C170.698 20.92 170.878 20.21 171.058 19.51L172.858 13.12H177.088L171.928 28.15C171.568 29.09 171.188 29.91 170.788 30.61C170.408 31.33 169.958 31.92 169.438 32.38C168.938 32.86 168.358 33.22 167.698 33.46C167.058 33.7 166.298 33.82 165.418 33.82ZM185.143 28.36C184.223 28.36 183.433 28.22 182.773 27.94C182.133 27.66 181.603 27.27 181.183 26.77C180.783 26.27 180.483 25.67 180.283 24.97C180.103 24.25 180.013 23.46 180.013 22.6V16.57H177.973V13.3L180.253 13.12L180.763 9.16H184.423V13.12H187.993V16.57H184.423V22.54C184.423 23.38 184.593 23.99 184.933 24.37C185.293 24.73 185.763 24.91 186.343 24.91C186.583 24.91 186.823 24.88 187.063 24.82C187.323 24.76 187.553 24.69 187.753 24.61L188.443 27.82C188.043 27.94 187.573 28.06 187.033 28.18C186.493 28.3 185.863 28.36 185.143 28.36ZM197.03 28.36C195.97 28.36 194.98 28.19 194.06 27.85C193.14 27.49 192.34 26.98 191.66 26.32C190.98 25.64 190.45 24.82 190.07 23.86C189.69 22.9 189.5 21.8 189.5 20.56C189.5 19.36 189.7 18.28 190.1 17.32C190.5 16.34 191.02 15.52 191.66 14.86C192.32 14.18 193.07 13.66 193.91 13.3C194.75 12.94 195.62 12.76 196.52 12.76C197.58 12.76 198.5 12.94 199.28 13.3C200.08 13.66 200.74 14.16 201.26 14.8C201.8 15.44 202.2 16.2 202.46 17.08C202.72 17.94 202.85 18.88 202.85 19.9C202.85 20.3 202.83 20.68 202.79 21.04C202.75 21.4 202.71 21.67 202.67 21.85H193.76C193.96 22.93 194.4 23.73 195.08 24.25C195.78 24.75 196.63 25 197.63 25C198.69 25 199.76 24.67 200.84 24.01L202.31 26.68C201.55 27.2 200.7 27.61 199.76 27.91C198.84 28.21 197.93 28.36 197.03 28.36ZM193.73 18.94H199.1C199.1 18.1 198.91 17.42 198.53 16.9C198.15 16.38 197.51 16.12 196.61 16.12C195.91 16.12 195.29 16.35 194.75 16.81C194.23 17.27 193.89 17.98 193.73 18.94Z" fill="white"/>
</svg>